<mxfile host="Electron" agent="Mozilla/5.0 (Windows NT 10.0; Win64; x64) AppleWebKit/537.36 (KHTML, like Gecko) draw.io/26.1.1 Chrome/132.0.6834.210 Electron/34.3.3 Safari/537.36" version="26.1.1">
  <diagram name="Page-1" id="iwYMFeQ8kuD5TJe2CGrO">
    <mxGraphModel dx="1195" dy="697" grid="0" gridSize="10" guides="1" tooltips="1" connect="1" arrows="1" fold="1" page="1" pageScale="1" pageWidth="850" pageHeight="1100" math="0" shadow="0">
      <root>
        <mxCell id="0" />
        <mxCell id="1" parent="0" />
        <mxCell id="_OdZvJV1ger64qLsPYaK-33" style="edgeStyle=orthogonalEdgeStyle;rounded=0;orthogonalLoop=1;jettySize=auto;html=1;dashed=1;strokeWidth=2;" edge="1" parent="1" source="_OdZvJV1ger64qLsPYaK-2" target="_OdZvJV1ger64qLsPYaK-25">
          <mxGeometry relative="1" as="geometry" />
        </mxCell>
        <mxCell id="_OdZvJV1ger64qLsPYaK-2" value="Amazon S3" style="sketch=0;outlineConnect=0;fontColor=#232F3E;gradientColor=none;strokeColor=#ffffff;fillColor=#232F3E;dashed=0;verticalLabelPosition=middle;verticalAlign=bottom;align=center;html=1;whiteSpace=wrap;fontSize=10;fontStyle=1;spacing=3;shape=mxgraph.aws4.productIcon;prIcon=mxgraph.aws4.s3;" vertex="1" parent="1">
          <mxGeometry x="619" y="459.38" width="66" height="88.75" as="geometry" />
        </mxCell>
        <mxCell id="_OdZvJV1ger64qLsPYaK-11" style="edgeStyle=orthogonalEdgeStyle;rounded=0;orthogonalLoop=1;jettySize=auto;html=1;strokeWidth=2;dashed=1;" edge="1" parent="1" source="_OdZvJV1ger64qLsPYaK-3" target="_OdZvJV1ger64qLsPYaK-2">
          <mxGeometry relative="1" as="geometry" />
        </mxCell>
        <mxCell id="_OdZvJV1ger64qLsPYaK-3" value="CloudFront&lt;div&gt;&lt;br&gt;&lt;/div&gt;" style="sketch=0;points=[[0,0,0],[0.25,0,0],[0.5,0,0],[0.75,0,0],[1,0,0],[0,1,0],[0.25,1,0],[0.5,1,0],[0.75,1,0],[1,1,0],[0,0.25,0],[0,0.5,0],[0,0.75,0],[1,0.25,0],[1,0.5,0],[1,0.75,0]];outlineConnect=0;fontColor=#232F3E;fillColor=#8C4FFF;strokeColor=#ffffff;dashed=0;verticalLabelPosition=bottom;verticalAlign=top;align=center;html=1;fontSize=12;fontStyle=0;aspect=fixed;shape=mxgraph.aws4.resourceIcon;resIcon=mxgraph.aws4.cloudfront;" vertex="1" parent="1">
          <mxGeometry x="390.75" y="469" width="69.5" height="69.5" as="geometry" />
        </mxCell>
        <mxCell id="_OdZvJV1ger64qLsPYaK-13" style="edgeStyle=orthogonalEdgeStyle;rounded=0;orthogonalLoop=1;jettySize=auto;html=1;exitX=0.5;exitY=1;exitDx=0;exitDy=0;strokeWidth=3;dashed=1;" edge="1" parent="1" source="_OdZvJV1ger64qLsPYaK-6" target="_OdZvJV1ger64qLsPYaK-12">
          <mxGeometry relative="1" as="geometry">
            <mxPoint x="425.5" y="215" as="sourcePoint" />
          </mxGeometry>
        </mxCell>
        <mxCell id="_OdZvJV1ger64qLsPYaK-29" style="edgeStyle=orthogonalEdgeStyle;rounded=0;orthogonalLoop=1;jettySize=auto;html=1;dashed=1;strokeWidth=2;" edge="1" parent="1" source="_OdZvJV1ger64qLsPYaK-6" target="_OdZvJV1ger64qLsPYaK-7">
          <mxGeometry relative="1" as="geometry" />
        </mxCell>
        <mxCell id="_OdZvJV1ger64qLsPYaK-6" value="www.yourdomain&lt;span style=&quot;background-color: transparent; color: light-dark(rgb(0, 0, 0), rgb(255, 255, 255));&quot;&gt;.com&lt;/span&gt;" style="text;html=1;align=center;verticalAlign=middle;whiteSpace=wrap;rounded=0;dashed=1;strokeColor=default;strokeWidth=2;" vertex="1" parent="1">
          <mxGeometry x="295" y="129.5" width="261" height="41" as="geometry" />
        </mxCell>
        <mxCell id="_OdZvJV1ger64qLsPYaK-23" style="edgeStyle=orthogonalEdgeStyle;rounded=0;orthogonalLoop=1;jettySize=auto;html=1;entryX=1;entryY=0.5;entryDx=0;entryDy=0;strokeWidth=2;dashed=1;dashPattern=1 1;" edge="1" parent="1" source="_OdZvJV1ger64qLsPYaK-7" target="_OdZvJV1ger64qLsPYaK-6">
          <mxGeometry relative="1" as="geometry" />
        </mxCell>
        <mxCell id="_OdZvJV1ger64qLsPYaK-7" value="&lt;font&gt;User&lt;/font&gt;" style="html=1;verticalLabelPosition=bottom;align=center;labelBackgroundColor=none;verticalAlign=top;strokeWidth=2;strokeColor=#0080F0;shadow=0;dashed=0;shape=mxgraph.ios7.icons.user;fillColor=default;fontColor=default;" vertex="1" parent="1">
          <mxGeometry x="736" y="115" width="70" height="70" as="geometry" />
        </mxCell>
        <mxCell id="_OdZvJV1ger64qLsPYaK-30" style="edgeStyle=orthogonalEdgeStyle;rounded=0;orthogonalLoop=1;jettySize=auto;html=1;entryX=0.5;entryY=1;entryDx=0;entryDy=0;dashed=1;strokeWidth=2;" edge="1" parent="1" source="_OdZvJV1ger64qLsPYaK-12" target="_OdZvJV1ger64qLsPYaK-6">
          <mxGeometry relative="1" as="geometry" />
        </mxCell>
        <mxCell id="_OdZvJV1ger64qLsPYaK-12" value="Route 53&lt;div&gt;&lt;br&gt;&lt;/div&gt;" style="outlineConnect=0;dashed=0;verticalLabelPosition=bottom;verticalAlign=top;align=center;html=1;shape=mxgraph.aws3.route_53;fillColor=#F58536;gradientColor=none;" vertex="1" parent="1">
          <mxGeometry x="385.5" y="309" width="80" height="73" as="geometry" />
        </mxCell>
        <mxCell id="_OdZvJV1ger64qLsPYaK-14" style="edgeStyle=orthogonalEdgeStyle;rounded=0;orthogonalLoop=1;jettySize=auto;html=1;entryX=0.5;entryY=0;entryDx=0;entryDy=0;entryPerimeter=0;dashed=1;strokeWidth=2;" edge="1" parent="1" source="_OdZvJV1ger64qLsPYaK-12" target="_OdZvJV1ger64qLsPYaK-3">
          <mxGeometry relative="1" as="geometry" />
        </mxCell>
        <mxCell id="_OdZvJV1ger64qLsPYaK-28" style="edgeStyle=orthogonalEdgeStyle;rounded=0;orthogonalLoop=1;jettySize=auto;html=1;strokeWidth=2;dashed=1;" edge="1" parent="1" source="_OdZvJV1ger64qLsPYaK-19" target="_OdZvJV1ger64qLsPYaK-21">
          <mxGeometry relative="1" as="geometry" />
        </mxCell>
        <mxCell id="_OdZvJV1ger64qLsPYaK-19" value="DevSecOps Team" style="outlineConnect=0;dashed=0;verticalLabelPosition=bottom;verticalAlign=top;align=center;html=1;shape=mxgraph.aws3.users;fillColor=#D2D3D3;gradientColor=none;" vertex="1" parent="1">
          <mxGeometry x="37.260000000000005" y="522" width="76.32" height="66" as="geometry" />
        </mxCell>
        <mxCell id="_OdZvJV1ger64qLsPYaK-26" style="edgeStyle=orthogonalEdgeStyle;rounded=0;orthogonalLoop=1;jettySize=auto;html=1;dashed=1;strokeWidth=2;" edge="1" parent="1" source="_OdZvJV1ger64qLsPYaK-21" target="_OdZvJV1ger64qLsPYaK-24">
          <mxGeometry relative="1" as="geometry" />
        </mxCell>
        <mxCell id="_OdZvJV1ger64qLsPYaK-27" style="edgeStyle=orthogonalEdgeStyle;rounded=0;orthogonalLoop=1;jettySize=auto;html=1;entryX=0.5;entryY=0;entryDx=0;entryDy=0;dashed=1;strokeWidth=2;" edge="1" parent="1" source="_OdZvJV1ger64qLsPYaK-21" target="_OdZvJV1ger64qLsPYaK-15">
          <mxGeometry relative="1" as="geometry">
            <Array as="points">
              <mxPoint x="75" y="345" />
              <mxPoint x="157" y="345" />
              <mxPoint x="157" y="293" />
              <mxPoint x="280" y="293" />
            </Array>
          </mxGeometry>
        </mxCell>
        <mxCell id="_OdZvJV1ger64qLsPYaK-21" value="" style="shape=image;verticalLabelPosition=bottom;labelBackgroundColor=default;verticalAlign=top;aspect=fixed;imageAspect=0;image=data:image/png,iVBORw0KGgoAAAANSUhEUgAAAlkAAAGkCAYAAAACHDAdAAAAAXNSR0IArs4c6QAAAARnQU1BAACxjwv8YQUAAAAJcEhZcwAADsMAAA7DAcdvqGQAAFwaSURBVHhe7d15fFTV3Qbw59w7k3UyCVmUpYIrbiAuuFBF0K5aW+tWta9aV1q3VwQVBRd2cAEUrVZxqxX38tattNYFEddq3cWloIgokgRIJskkmbn3vH+ce+6cuZmEBDJk4fl+PvOZZObOnbtEzuM5v3uuiEajEgBqampARERERJ3DCr5ARERERFuOIYuIiIgoCxiyiIiIiLKAIYuIiIgoCxiyiIiIiLKAIYuIiIgoCxiyiIiIiLKAIYuIiIgoCxiyiIiIiLKAIYuIiIgoCxiyiIiIiLKAIYuIiIgoCxiyiIiIiLKAIYuIiIgoCxiyiIiIiLKAIYuIiIgoCxiyiIiIiLKAIYuIiIgoCxiyiIiIiLKAIYuIiIgoCxiyiIiIiLKAIYuIiIgoCxiyiIiIiLKAIYuIiIgoCxiyiIiIiLKAIYuIiIgoCxiyiIiIiLKAIYuIiIgoCxiyiIiIiLKAIYuIiIgoCxiyiIiIiLKAIYuIiIgoCxiyiIiIiLKAIYuIiIgoCxiyiIiIiLKAIYuIiIgoCxiyiIiIiLKAIYuIiIgoCxiyiIiIiLKAIYuIiIgoCxiyiIiIiLKAIYuIiIgoCxiyiIiIiLKAIYuIiIgoCxiyiIiIiLKAIYuIiIgoCxiyiIiIiLKAIYuIiIgoCxiyiIiIiLKAIYuoFVJK/znTw1yGiIgoiCGLqBVCCC9ECQgh9KsQQj2klMbrRERE6RiyiFqRClGq50oHK9dN/529WkRElAlDFlE7bVzvwLIELAtwnVQIE9A9XooZvIiIaNvFkEW0CdJVQ4cP3lOLP87ZgLo6CTukhgkdR0IKL2z5w4vmUCMREW2rGLKINkFHpcZGib89WofLz1+HfzxdBykB2xZwnfQhxGDAYtgiIto2MWQRtZNtA0VRC7U1Lu68eSOuGV+FD/7TCNu2YFkCrotWwlZ67RYREW0bGLKI2klKNTwYCgtEimx89nEzpk2sxpwZ67FmdQK2reu1dKDSYYtDiERE2yKGLKIOklL1WOUXWMjNFVj2UhwTL6nEIw/Uor5ewg6p/6wcrzheSuH3ZqXWwbBFRNTbMWQRbSbXBQCBSJFAIgE88udaTLhwHV74R32qXsuVkK7Zq8WwRUS0rWDIItpsKiC5joBlCUSLbVSuc/HHmzZg6pXV+PiDJlWvZafXa+kJTXXtFoMWEVHvxJBFtJlSAUmFJCcpkZMjECmy8NF7TZh2ZTX+OGcDvluTqtdyHL28CltmvmLYIiLqXRiyiLaIgBB6YlJdHA8UFFoIhYHn/16Pqy+twl8fjqGhXiIUsvxl1BCiDlvs1SIi6m0Ysoi2gLp1Yeq+hjosqRAlUBS1EY9LPHh3DSZdWoWXn2+AELpeS9V1MWgREfVODFlEnUCFI/MVbwjRkbAsoKjYxpqvE5h//QbMmFSNz5c3e0OIAk5SLW8GrOAzERH1PAxZRJ1EiFSdVuoZAAScpERunoWCiMC7/27ClCuqcOctG/Hdt0nYITXkqOq1VFE8p3wgIur5GLKIOpkKSf5vfthyXXUlYmHEAgSw+Mk6XDuuEk89EUM8LmHbalk3w5QPep0MW0REPQdDFlGWBMOWCk6q6F0IgWiJjVjMxX131OK6y6rw2lJVr2Xeoid1FWLqdj36ZyIi6t4YsoiyLNgbZU75EApZKIpaWPlFAnOmb8Csa9fji091vRaQNOq1AAHpfZYF8kRE3R9DFtFWYA73pddrqVqs/AIL+fkCb7/eiMkTqnDP7RtRVekgFFIL6fm1BFivRUTUUzBkEW1FwSFEHbpcV82xVRgRkC7w1ON1mDS2Cs8sqkMi4dVruerm07qY3uwhUzlLBq5wJCKirsSQRdQFzN4sKdVcWTpsWRZQXGJj4wYX9/yxBtddVo133mqEZQtYtoDj6Joss1dM3Yhar4+IiLoeQxZRF1EBSfgBKTXspyYzDYeBSJHAF581Y+bV1bhxWjW+WpGq13KS5vCjCmo6fIHDiEREXY4hi6gL6aG/1JQN5i16VM9Wfr5Afr7A6y/Hcd3lVXjwnhrUxSTstHotHdgyFdoTEVFXYMgi6gZShfGpWisdvFxXvVdYZCPRDDyxMIYrLqrE84vrAehb9Kj5taRML67XDyIi2voYsoi6kVRPVupqRD1XlusAlg1Ei21Ur0vijrkbMPnyanz0fhNsW6iw5WSuydJBi4GLiGjrYcgi6mZ0wDKf08KWC+TkWigotPHxh02YdlU1brtpvX+LHsvSQ4jqs2ZgS62LiIiyjSGLqBsz66qCQ4BSAvn5FnJygBcWN2DS2Eo89mAt6uvVlA/w6rV0uMoUsIK/ExFR52HIIuoB0sOWGhLUQUtKgaKojXiDxMP3x3DV/1bi5ecD9VqOawxDpsJapuBFRESdgyGLqAdRoSh9CBCQcBwVqIqKLHz/bRK3XL8B0ydWY/lHTbBtC5ZtqV4tV82plalni2GLiKhzMWQR9TC6U8vv3dJzbXlhKydXoLDQwnvvNGHaldW4Y94GrP02iVDIgrDUDarNniwY9VqcNZ6IqPMwZBH1YEIINc2W+s0LSao4vqBAwLKBfz5dj6svrcRfH4759VpSwruVjyqmNwOWvsKRiIi2DEMWUa+gCrX0EKAQAtKbXytaYqG+XuLBu2tw7fgqLHupAULoeq1Ur5aUqXotjWGLiGjzMWQR9RJpAUuq4UNAwEkCtg0URW2sXpXA3JkbMPva9fjsEzW/lpryAV5IS/VsBYcTiYioYxiyiHoRv04rELrU/RAlcnMtFEYE/v16I6ZdVY0Ft25EVaWDUEj49Vpq2DB91nhzvURE1D4MWUS9UFqvVtpEpIDrqBtPSwn8/W/1mDi2Ek//tQ7xBlWvpW7RA0j/foqc5oGIaHMwZBH1Un7vU4ZeKcdRN5Muilqo3Shx7x01mHxFFV5/Je7fogfeXFxERLR5GLKIernMQ4hevZYDhMNApMjCyi8SmDNtPW6YvB5ffNbsTxXBnEVEtHkYsoi2EamABf8qQiG8KR8cibx8C/kFAq++HMeNU9Yj3qCXVSlL94SZD/069T7m+eU5J9o8DFlE2xBdBK/nw0qFLT2dg0BR1EIiIZH0bjJtflZ/PlirFXymnil4HvXfhvnQrxHRpjFkEW2DggFLPauG1XEAyzLmODV6wVTjK+G6qfou9UgPWAxbPYs+t2aIMkOV46hzbi5PRJvGkEW0DdM9Euo5Fataa0N1D5hlqZ4v1fCqIcdgTwcb4u7PDFf6dzNQO66ElGriWstiLxZRRzFkEdEm6bxkWcBrSxvx+XI9kama7FTPrZUpYDFsdU+ZwpUZsFxXwrbUOX7xxTX48MNqCKGm+CCi9mHIIqJ2kS4ACHy1IoGrx1XhkT/XonajAzukGur0xrfl/FoMW91D8JwEw5XjSFiWBdu28NWqGCZP/jeunPAmqquaWnyeiNrGkEVEHZKTK5BMAo8/GMPEsVV47tl6AIBtW96Np/UQYsueEt2Q09anj705pBvsuQKAUMhCbW0z7rxrOc4792UsXrwa4RwLOblsLog6iv/VEFGHSBewBBCJWqhc5+COeRsxeUIVPnq/CZY3vKQK4wE9/YNZx8Oanq2vrcCrZviXsG3VHDz77CqcN2Yp7rrzEzQ3uygqylET07qBlRLRJjFkEVGHSQCuC+TkCBQVWfj4vWbMmFSN227agDXfJGHbVurG00YvSvBnyi7zOLfsvQIcR4Ur27bw3ntVuOiiZZg69R18s7oOJSU5sHVgTlsrEbUXQxYRbTZ1hSGQX2DBtoGX/tmAq8dW4v8eiaG+Xt0LEf4QYvpVjGboos6lj6k5NKin7JB+3ZVAKGRhzZo6zJ79Li655FW8/XYlIpEwcnNtOA7DFdGWYsgioi2g6q9cbyipMGKhqUnigQU1uHZ8FZa+2ACI9HotIdIbfR0EqHOkH1PpH+fU/Gaq7qq+IYE///lTjBnzChYt+hKWJRCJhFW4khzWJeoMDFlEtAV0z5RqzNVEpgJFURurVyUwf/YGTJtYjeUf63otIJlUjb0OW6keLUAVzAe/g9pLHUt9TAWkVOfGrLuyLIHnn/8G55//CubP/xixWAJFRWEAau4zs16LiLYMQxYRbSHzijXVMDuORG6uhfxCgQ/eacL0q6px1/yNWPutg1AoVa+le11Ur0l6sTy1Tyqk6uOmApaehd+su/rwo2qMG/8arr32bfz3ixr06ZML2xZwvFso6XDFXiyizsGQRURbSDfI6UOArgu4jkBBofpnZvGTdbh6XCWefCyGhgZVryUl4Dq610SHrUzBgTLRx9o8TjqwJpMuLKGGBr/7rgFz532Aiy96FcuWrUVeno28vBCSSTXOqwNZerhi0CLaUgxZRNQpzIZaNfqqZ8txVMNfFLVQH5O4/84aTL6iCq+/0qBu0WMLuF6vlu4VY71W28xjEgyojuNCSolQyEJDPImHHv4C55+/FA8t/AIAUBQJw5XqgoXU8eXNn4mygSGLiDqNbqCFP1WAMIYQBeyQCltf/jeBOdM3YNa11fji02bYIVWv5SR1UAvWa7FnSwuGT91z5bquUXdl4aWXvsUFFy7DnDkfoKqqEcXFuRBC1c0JAEKkT06aWhcRdRaGLCLKItVLooMToGqx8vIE8vMF3n69CVMmVOHeOzaial3qFj0t67UyDWdtO4IhM9j7ZN4KZ/nyDbjyyjcwadJb+HT5RpQU5yAnx4bj6NlEU8Oz2rZ6XImyjSGLiLImNQQFyLR6LVWzVVhkwXWBp56ow9Xjq/DMojokEl69lmvWa7W86k0/93bB3iYYvVe6pioUsrBuXQPm3/ohLrhgGV544Vvk5looKAgZUzK0DKoMV0TZxZBFRFmlGnIBtKjXUrVYlgVEoxY2VLu49/aNmHJFFd55Mw7LFrC8K99Uvkj1bAXDQm9khiq9v3qf9dBgKGShudnFokUrcf75r+CBP38O13URjYa95cxjnrrisLcfO6LugiGLiLaKYA+KauxV4+846hY9hRELn32SwPWT12PujPVY9WWixZQPOjD01l6tYLiCcbxcN31o8I03v8dFFy3DrFnvYe13cRQX58Cy9JQM6aEqFbQYsIi2FoYsItqq0ht5cwhR36JHICdH4JWX4rj2siosvLcWGze46hY9Xu9M6irElqGkJwcuMxDpniv9u3krnBUra3Hddf/G+HGv48MP16OoKIzcPHUrHLNWi3VXRF2LIYuIuoQZJszhQNdVYaCoyEJzk8QTC2O4elwV/vX3egDBW/SkBxFzvT1FMBgGf9YF66GQhVisGXfe+QnOP/8VPPvs1wiHVd2VlOrWRpmOA8MVUddhyCKiLpMKAOaQluqBcRzAtoGiqMC6tUn8ad5GTL6iGh+9r2/RI5BMqjmhzJ6fYEjpzswQZO6DCpuuP1s7APz971/jvDFLsWDBcjTGkyguzoEQumdPQF81GAxaRNR1GLKIqMuZYSDVA5MKW7m5FgoKBT5+vwnTJ1bhtps24NtvVL2WChqpHiEzbOnn7ha2zG01A5F+PZl0YVkWQiELH3xQjYsvfhVTpryDr1fVobg4B7ZttRgaDB5DIup6DFlE1G2YoSNzvZYF2xZ4/u/1uPrSKjyxsNa/RQ+8ei31+Zaho7sELTMQBUOh40gI71Y4a9bUY9asd3Hhhcvw73+vQ2FhCHl+3VXLfQoGLSLqegxZRNStmKEjFSRSYUsIgWixjXhcYuG9tZg0thJLX1S36LFtNe9WsGcrGEa2tuB3tgxXqbqrpiYX99//Kc4772X89a8rYdsCkUjYq0NL7/EyjxMDFlH3w5BFRN2SGRrMsAXAq1UCIlELa1YnccusDZg+cT0+/7QZtq3qtfT8WsFAowWDT7bo7zGDkd4WPSWDbVsQQuDFF9fg3PNexh//+AlisYRxKxy976l1aAxXRN0XQxYRdWs6RLQMSgKuI/x6rXffbsTky6uw4LaNqFyX9OfX0r1aqclMU8FrawUt+PuR6oUyp2T46OP1GD/+NUyc+BZW/LcG0WgYoZBl3AoHSE3HkDoeRNS9MWQRUY9h9uLo4KSH0QoK1E2m//5/dZg4tgpPPhFDU6N3ix5pTmaaHtbUk1pPZzF7r1Qo0oEove7q++8bMHfuB7jwwmV4ZdlaFBSEkJenboVjrktvrw6JRNQzMGQRUY+R6r1JTXWgw4eaX0ugKGqjrtbFn++sxTWXVeGNZXFYFmDbwr8XopQSwl+HDl5blrLSg5UZCFUYdJzUrXAam1w88sh/MWbMUjz80BcQAIq8uispU8OjZm8Ve66Ieh6GLCLqcXTeMHt5UvVaan6tSMTCVysSuGnaetw4dT1WfNEM2xxC9OqbpFRBSPdk6ZDUEenbkRra1DVUuu7Kti0sW7YWF5z/CubM+QDr1zch6s13pXuvzO/XgYuIeiaGLKItsDkNMnUeHUD0cypsqWLx3FwL+fkCr7/SiCkTqvHnu2qwvtq4RY9jrqfjhfHB5fV69O/JpLrPYChk4fPPN2LSpLdwxYQ3sHz5BkSjYYTDqfmuUutIrYv5iqhnY8giaichvMbY6PFgL0P3YQauVFgBXCkQiVhwEhJ/e6wOk8ZWYvFTdUgkADuUuspPF8YjQ3jKRJ9//b7Zo5ZMun7dVXV1I26//SNceOEyPPfcauTl2sjPV3VXqqfKDFWqfox/V0S9A0MWUTslmlVjann/1ehGVTeyrTXGtPVk6tkS3pQPwhIoKrKwvtrB3bfWYMqEKrzzZiMsC96UD+lhJxXW0oNXy1CVel9691TU810t+r8v8fvfL8V9932G5mYHxcW5cN3gfQbTAxUDFlHvwZBF1E4/GKh6H+JxF5YN6GGpYGNM3UOmzOs4QE6OhYJCC5990ozrr6vGnBkb8OWKZoRCanhO9TDpD6eCtHmezXCte8z0lAy2beGNN7/H//7vq5g58z9Yu7YB0WgOLMvyeriE97eTvk4i6n0Ysog2wbJUL8Vvzohi0vQyDNwpjLqYRDIJ2CH4YQsZejuo66jgkgovKsxISFf1NuXnW8jJFVj2YhxTJlRj4b212LghVa+lJwAN9mrpZx2MHMeFZamhwRUrajF58tu47LLX8f771SiO5iAnx7wVjjnMaG4nEfVGDFlEm6DbQMsGDhmZj2lzyvG730dRFLUQq1GV05adXqOjezf8Ai7qEvrcpYKMgIQ6P643z2dRVKApLvHEwlpcM64K//p7vQrQtr5nogpbqcJ41ROlJwq1bQsbNzbjzjs/wfnnv4JnnlmFcMhCYaHq+WxtaJDhiqj3Y8giaoXZMAqhmkfHkcjLE/j1SUWYeXM5jv51BK4EGupdWJa+Gkz3oKQaZvZsdT0dalI9XOr8OI7qkYxEbXy/Nonb527AtKuq8P5/mrxb9Oh7BqrPCqGCk21bcFyJZ55Zhd//fikWLFiOeDyJ4uJcb716GDD93DNcEW07GLKIWmH2TOnaK9sWkC6QTLqo2N7GeReXYPL1ZdjvwFw01Ltoblb31FNSDWxqPdQdBIf+ADVRaW6uhUjEwsfvN2PW1dW47aYN2LBeDQfq8+e6qlB+5cpa/O//voqpU9/B6tV1KC7OaXErnJbfQ0TbEoYsolaYjaPujZISEJYKW66rerYG75mLq2eU4dJJfdD/BzZiMReudwNjHc50Ax18pq6R6dwKoYcHgcKIgLCApc83oHJd0uuRVJ+Vrvrh4483YMlL3yIaDfu3wpGcrZ2IDAxZRG1o2VCmGmRhqaEk3bgeNroAM2+uwGlnFyGvQCBW63qF06meMDNwgWGrSwXPrToXOmypod9I1EIoFAhI3q+q1yv9Vjjm30cwaBHRtochi6gdzHDkN6DeUKCeN8txJPILBE74bRQzby7Hj48uQDIJxOMSliUBYQS0QE8KdZ3MYUsN9OoAnYnrzYmVkgpVDFhEBIYsovZLhSP4Vw/q14RQvVrSmy+pb/8wLhzfB1fPLMPe++Sivk4i0ST9+bWCASv4TFuffz42OxulgjMDFhGBIYuo48yAJf1arVTjquq11K1ahgzLxeQbynDR5SXYrm8IsVrXu4GxGlpS60vv/WDQ6jpbGo629PNE1LswZBFtBt2Yms9m4LIs4d2qRQWmI39WiBk3l+PE/ylCOAzEal1IY6JTs0A+ta60ryQioh6GIYtoC7UVuPzZw5MS0WILp51djCk3lmPkkflINEnEG6R377xUb1iqh4vDh0REPRlDFlEnMoOW2TNlh1JTPuy0aw7GTSrFhKll2G3PHNTFJJrT6rV4FSIRUW/AkEWUJelDf/rmwWrSS8dxccBBeZh8QxnOvrAYfcpsxGpcbyZxeL1Z6UFNr5OIiHoGhiyiLDF7o9LClp2q18rJEfjl8RHMuLkCvz45AssC6mJqxnB9P0Q9c7wZ2oiIqPtjyCLKouCwIXQPF1SvFqBu0VNWbuHM35fguuvLcdCheWhqlGhscGHbujheD0VyCJGIqKdgyCLaCnTA0j9Lo2cqZNRr7bZHDq6cUobLrinFLruHUVvrIpFw/Skf0uu1OIRIRNSdMWQRbUWZhxDVDYf1LXpcV+Lgw/Jx3exynH1+MaLFFmK1DqQEbFtP7aBu+8IhRCKi7oshi2gra3UI0Zs1XggVtvLyBX51YhFmzKvAL46PAADq6yQsW037kPo8hxCJiLojhiyiLqIDVjBoAUJdYShVvVbF9iGce2EJrp1dhv0OykVDvURTo6rXajmEqDBsERF1PYYsom4iFZS8eivjFj2OI7H7Xrm4ekYZLp3YBzvsGN7klA9qKJJhi4ioqzBkEXUDZq+WGbbUEKJZrwUcNroA0+aW4/QxUeTlCcRqHQCAZXuhKm3WeNZrERF1FYYsom4mWKulf7ftVL1WQYHA8adEMWt+BX56TCEcB2iol2rKB4FWrkIMfBEREWUVQxZRNxOs1UoN/angZNtQUz4kJbbvF8L5l/bBNbPKsM9+uYjVumhqcmHbOlEJCKGHDTl8SES0NTFkEXVjZo2VDklSekOINvx6rb2G5uLa2WUYO7EUffuHUFvrwnVVz5bqyVIBDUZRPAMXEVF2MWQRdXPBni3zFjtCqBnhHUcFplE/KsDs+RX47VlR5OQIxGpdAGrKh9aK44mIKDsYsoh6kOAQov7ZtgWkBJyki4JCgd+cFsWs+eU48mf5SCSAeIMLYcEfOjQ/nwpaDFxERJ2JIYuoh0n1aKWHLcsSsENe2HIk+g0I4+IrSnH1zFLsOTQHdbUuEomWvVrwg1ZqvUREtOUYsoh6qNSwX+oqRB2c9PxariMxdN88TLmxHBeO74PyCht1sczza7Eni4ioczFkEfVgKhyl90jph2UJCK9ey7KAHx9diFnzK3D8qUWwbXj1WoBlpQIaERF1HoYsol5CFcIHa7ZS9VrJpItosYXTzy3GtLnl+OGofDQ1ScQbVAgzRiGJiKgTMGQR9TKpYcTUtA9CCIRCQs2v5UjsuHMOLr+2FFdMLsVue4YRi7lobpawvAlPiYhoyzFkEfVCZtAye7X0LXrU/FouDjwkH5NvKMc5F5aguMRCrMYx6rWIiGhLMGQR9VJmnZYOWulhS8BxJHJyBH55fAQzbq7Ar04qghBAXUzfA5GIiDYXQxZRL2fWaaVfRajqtQB1i56K7Syc9YdiTL6hDMNH5PJiQyKiLcSQRbQNMXu1UvcyFLBD3v0QHYnd98rFpVeWIr9AFczzqkMios3DkEW0DdG9Wuk/G/dDtADXkYAALK8uS4i2urT0e9ILZNTTqeANzptG1AkYsoi2QS3Dlu7VAizbG1aUumje+CBUx5Zl6f4t/VlVwpWq+6KeRp8786IJzbYEOzSJNgNDFtE2zKzX0vRQohm8YPRrJBNqbi0VtlQvmFnrlRqOpJ4iGKo0y1Lv1dUnVA8nEXUIQxYRAUZhfPCh3lMNLiAx+icFGPXjfDTFXTQ2Stgh9XkdttKCGcNWt5Z+flK9WJYl1FWmdQlACJx55mAM27cM8O6RSUTtw5BFRO0mXaDfgBAuv7YUl11bil0GhxGrceAkJWxb94ClwpZ+ZtjqXjINDepTZNsCjY0O4vEkDj20H26//TBccsk+iEZz4LqZe7yIKDOGLCJqP6EmMnVd4MAR+Zh6YznO/EMxoiUWYjEXkGoiUyklhFHEE+zhoq7TcmhQ/WzbFlzXRW1tArvtFsW0aQdh7twR2HOPPnAcF66rerh4HonajyGLiNpk9nbAGy4SAnCSLnJyBY49qQjT55XjF8dF4Eqgod5VhfHejafV51TDrBtoNtRbV8vjrnocAT27v0RtbRMKC0O45JIhuOOOkfjxjwdASnVnAD15bcuARkRtYcgionZL1WgJWLZ3L8SkRMV2IZx7YQmm3FiOfQ/MQzwuVb2WNw2EuvowOIyYvm7qfGaY1cddHXs1XYequ0rCdYETjt8ZCxaMxmmnDUZBQQiO4wLe8KF/LWmGKw+JqHUMWUTUplQoUj1TruvVWAnVSKuJTCUcR2K3PXJw9YwyjL2yDwbuGEZtjQvHkV5DnV4HFOzdos4jZfp5MwMuvN6rxsYk6usTOOjg7XDrrYfiyqv2w4ABhUgmU0ODKkwJCJGqq2PAImo/hiwi6hB9dZnr6FfU8KFlqRnjpZQ47IgCTJ9bjtPOjSK/QKAu5kBK9dlgo282/rTl1DE1f06FWtsWcBwXNTXN2GGHCK699gDcOv9Q7LNPmVd35cL25kkzg7XuieR5IuoYhiwi2iSzbf32mwSkVMNIrqt6seD1cPj3QnQk8gsETvxtFDPmVeBHRxXCcYB4g1ev5fWMmA138Jk6zjymuhdKelMySAnU1iaQm2tjzJi9cNddh+MXvxgEKVUvpK67CgZg/QB7sYg6jCGLiNpF92a8sSyOay+rworPm2HbqmF2HGMY0bvxtJQqbPUbEMKF4/vgmpll2GtoDhrqJZqaUkOIesoH4c0Yz4a8Y4LhNPWsehctS6C+PoFk0sXRR++Au+8ehTFj9kRxcW6g7gp+KAsGYCLaPAxZRNQuur3NzbXw7r+bcM34Ktx5ywZUVSYRClnqvocuvOCkGmnb9qZ8cCT2HpaLKTeV44LxJeg3IIRYrQPHBSxvfi0d4nQjr76TjXxbgj1XZo+TbQNNTQ5qa5ux777luPHGQzBlyoEYNKjIr7uybcsPVmaoYs8VUedgyCKidtHNrZRAYaGFUEjgH0/VY+IlVXhmUR2am1WPiOrBUgFA9aYICK+3CwB+9PNCTJ1Tjt+cXoRwCKiPpZbT32QGBwatlsxjEjxOqu5KoqamGdtvn4+rrtoPt912KEaM6OvPd6V7INVnMgc1ItpyDFlE1GG6DqsoaiNW6+Lu2zZi4iWV+PdrcViWGi5URfA6BOj5mIBk0kVxsYVTzyzGtLkVGHlkPpykRLzBhRAybX6tYI/Wth64MoUrfZxUSJWorW1GOCzwu98Nxp13Ho4TTtgZoZCVNt+V2XulMVwRdT6GLCLabI6jek6ixTa+/iqB66esx03TqvHViua0IcRUOFABzHVVvdagncK4dGIpLr+uFLvtGUZdTCLZDFjeBJm6VwsZemy2Neb+m+FKBViBhoYkmpocjD6iP26/fSQuvngoKirykUzquiv1z706fqmAxXBFlD0MWUS0Wby+JcALW7m5FvLzBV5b2oirx1Xh3jtqsGG9mhJALwOvURdCTYap59c64OB8TLmxAuddXIzSCht1tS5cNzUbuTmE6H//NhK20vYzw9BgIqGmZBgypBSzZh2MG28Ygd13L/HqrlyEQma4IqKtiSGLiLaAGqISQt3PULoCkYgFKYGnn4hh0thK/OPpOiQSqg5IepOZ6uCkhq9Ur1Y4DBz96wim3VSOY08qgmUBdTHXm4MrNYSor0LUemt4kIH5qYQQ6pICqY6lus9gM0pKcjB+/DDMn38oRo3qD8dx4Tgq3OqpG2CEW/0gouxjyCKiTqDCFoTqsRJCoChqY321iztv3ojrLqvGO2+pei095YMOR8IbQgTULXrKKiyc+YdiXHd9OQ46NA+NcYnGuDlrfCow+OGjFwUtFa70cJ4KpHof9fGrjSVgWRZOPnlX3Hnn4Tj11F2Rn28jmVR1V7Y3oWgqBPeuY0TUUzBkEdEWStUGqdFD1Zir3ikVtr74tBnXX7ceN89aj1UrU/VaTlJCessDAnYoVa+12x45mDC5FOOvKcVOu4ZRW+N4NWDqO8yA1VtCRCpcmTVY6j3bFmhsdNDQkMRhh26PW+cfissuG4b+/dWtcPQyKli1HFpl7xXR1seQRURbTPeayLTpAOBP55BfIJCTI7D0+QZcPb4KDyyowYYNLuyQChFqegevZ8ur19JXJx5yWD4m31COM88vRlFUoM6b8kH3fqV6fJSeGraCoVH3QukrA2tqm7HLLkWYOnU45s79IYYMLfXnuwqFzGHAlgGUAYuoazBkEVGnSW/MU2FLXWEIRKIWnCSw6OEYrhlXiX/9vd4rcE/dokcIqXq1bFV/lUxKFBQK/PqkIkyfW4GfH1sIQNdrpcKcGSp6UtDK1OMkpYRtq/2qqWlCQUEIF180BHfccTh++tMdvGCaXncl04YZFYYroq7FkEVEnS5T4BFCwHHUpKPRYhvr1jq4Y+5GTL6iCu+93egHhmQyVa8FCIRCKqQ5jsR2fUMYc3EJrp5Rhv0PzkU8LtHclLqCUfX+pHT3sBXscQLgT8lQV5eA60oc9+udsOCuUfjd73ZHJBJCMqkuBjBna1efU58PBi0i6joMWUSUFcHwoH5W7zmORG6uQGGRwCcfNmPWNdW49Yb1WLM64ddrJZN6CDF1FaKe8mHPobmYNL0MY6/sgwEDQ4jFHDiO6v3xvr3bDiHqbcm0TbYt0NysboVz0EHbYd68H2LipP2xw8CINzQIb0oGHaJSw4H6WDNgEXUfDFlElDWp3hk19JcaQhRwXQHXASIRC6GwwIv/jOPqcVV4/MFaxGpdhIx6LTNA6HotADjsiAJMm1OB354VRX6BQF2dC0DCsgApu9/cWsGeK3181HCpRG1tAgMGFOK664Zj3rwf4oADKtSUDK45NKjCp7kucGiQqFtiyCKirSQ4hKh+VlM+AJEigca4xIP31OLqcVV4+fkGWFbLei0BFbTg3aKnMCJw0v9EMePmCvzkqAI4DhBvcGHZar0ITGSaClpbJ3AFvzc9aAGACld5eTbGjNkTd989CsccMwi2Lfxb4diWpT5jXBygMVwRdV8MWUS01ehAoHpxdOCQAFSQsm2guMTGd98kMf/6DZh2VTU+/bjJ78VxkoBrDEHqAOY4Ev36h3D+uD6YOL0Mew/LRUOdi+ZmCcvWYSp1BZ4KPOm9XJ1N+vdtbNlzJYxb4SQSEkcfvQPuvPNwnHfenigqyoHjmLfCUZ+XUgKBAn8i6t4YsoioS6jhPPWc6tVRE5Xm5FnILxR47+0mTJ5QjT/dvAGV3ydhh7zhwmSqRye9XsvF0H1zce3sMlw4vgTb9fVu0ePXa7UcZgs+b6nUelr2XCGt7iqBYcPKMHfuCEyZciB23LEIjqNuhWNZZhhk7xVRT8WQRURdIjWU57+SCiSqtAoFEQu2Bfzz6XpMvKQST/81huZmmTa/lgoiaj16NnnLAo78eSFmzS/HCb8tQigsUBdTvUOqXiu9ZykYhLZEqqdJ99ip31N1V83YriIfV165L/74x8Nw0EHbeeFKzege3Ca9TvOZiHoGhiwi6nJmMFE5xxtC9Ou1LNTVSdz9xxpc9b+VeP0VdYseHVzMUKOnc3AciUjExmnnFGPa3HIcdmQ+mpsl4nEVwsxerdT3b1mIkcZcVanhQrVdtbUJhEICZ5yxO+6+ZxROOGFnhEKq7sq2LT9gmYGqM7aJiLoOQxYRdQsqTKR6tlSvkq6dUuGpuNjG118lMWf6esy6thorv2j2A4qTVEOGOpjY3g2pHUdi0E5hjJtYiglTSrHr7mHU1blIJCSsVoYQN096YFPDmALxeBKNjQ6OOKI/br99JC6+eAhKS/PgOK43c73lhzP90BiwiHo2hiwi6naCvTn64ThAXp5AXp7A2683YtKlVbj3jo1YX+349VqukwpowpvywXUlXFfigIPyMfWmcpx7YQn6lNqoq5VwHcDybj6dmn9qc6RqqMz5rgYPLsHMmQfhhhsOwe67l/i3wrG9mzjrUKUDmtmbRUQ9G0MWEXVLweEy9Swhpfq9MKImLX3q8TpMvKQSz/6tDokkVL2Wq2/lIyGgarWEUEOIOTkCvzgugunzynHMCYUQtrpFDwBYlgS89XeU9OuugJqaZhSX5GLs2KG4446ROOKI/n5hfiikerjMGjSGKqLeiSGLiLotM3zoQKJ6flSYEQKIFluo2eDi7ls3YtLYSrz9RhyWrYKV60i4Xo2X8IcQVdgqr7BxzgUlmHx9OQ45LA9NTRKNjWoI0bK8jq12sqxU3ZUQwMkn74IFdx2O004bjIICG47T+q1wzOFBIupdGLKIqNvTvT1m0NJhy3EE7JBAUdTGl18kcMPk9ZgzfQO+WpmA7d2ix/GGEPXnLcubXyspsdseObjiulKMm1SKQTuFURdz1BWM/mSmrRPeFY0NDQ4aGhI49LC+uOWWQ3H55fuif/9CJJOq7sqckiE9LLLuiqg3Y8gioh7DDCSp0KXCiuMAefkCObkCr70cxzXjKvGXu2uwYX3qBtLpVyICdkhPAwGMGJmPaXPK8bvzilFcYiFW6w0htpKBLEsgkVBTMuy8cxGmTj0Qc+eMwLBhZX7dlb7PoBkQNYYrot6PIYuIepz00JIKW2piU1Wv5brAXx+K4ZrxVXju2XpvRnn1ur73obq6L1WvlV8g8OuTizD1pnIc9atCuK5AMpn+3Xp0r6kxiaJIGH/4w164446R+NnPdvDWY95nEP7Vi+qz6UGLiHo3EY1GJQDU1NQE3yMi8oflpCth2QLPLKrD/X+qQX6h5c9j1ZX84CIB6dVeSekN5dlAU6OLZALYc2gOTvxtEfYdngdADRUKS/VI6TAEqW7bo3q+BN57uxF9ymwM2imcGuZzJYQl8MknG2BZwB579AGgpooITiaKFoGQiLYlDFlE1KbuHrI0s9ZJbZP6WV9Z2NDgwraBHx5egONOiWDgjmEvHKWuPtTrkTLVy5UWltRa4brqM/BuUp36vPAr5hmuiIjDhUTUK+gwkz6EmLqBdEGBhXBYYMnzDbj2siosvLcGGzfoei3VE6U/I4S6YtBVlyYCOsR5w4X61jyq7kotr76XdVdElMKQRUS9jtmrpYKPKowHgKIiC82NEo/9JYZrL6vC8//Q9VoqkLmuDlqqrkp4hevpPVOp9/UEpuk9aQxXRMSQRUS9ULA3ya+5gncDaVuguMTC2jVJ3DFnI6ZeWY33/9PoF6w7SRfSlVARLX36B/2z+Uh9DwMWEaUwZBFRr9UybOl6LdWzlZsnkF8o8NF7TZgxqRq33rge33yt5tcSFuAmdU9Y+noyPfR7REQaQxYR9Xq6N0uFILNeS92CpyCi6rVe/Ecc14yvwqN/qUVdTML26q3McKZ7roiINoUhi4i2CWZI0r1aupdKXyVZFBWIN0g8fF8Mk8ZV4uUXGtDUqAIWsxURdRRDFhFtU4JDfyp06XotIBRS90NcsyqJ2+dswMr/Jrzer7TVEBFtEkMWEW2TUr1ZSBtCBARcV6pb9ORYcJJMV0S0eRiyiGibpYvWg1cOqqDlzSDPfyWJaDPxnw8i2ua1dVUghwmJaHMxZBERedoKW0REHcWQRURERJQFDFlEREREWcCQRURERJQFDFlEREREWcCQRURERJQFDFlEREREWcCQRURERJQFDFlEREREWcCQRURERJQFDFlEREREWcCQRURERJQFDFlEREREWcCQRURERJQFDFlEREREWcCQRURERJQFDFlEREREWcCQRURERJQFDFlEREREWcCQRURERJQFDFlEREREWcCQRURERJQFDFlEREREWcCQRURERJQFDFlEREREWcCQRURERJQFDFlEREREWcCQRURbSAZfICIihiwi6igh1COYraRk2CIiMjFkEVG76AiVSEg4DmDbOmyZiYtBi4hIY8gionYRQj33KbNRGBGI1boAJIQFSCkghICUqR4t9mwR0baOIYuINkkPEbquxKgfFWDmLRUY+aN8JBISjXEXtu0v6YUt6T8TEW2rGLKIqN100NphUBhjryzFVVPLsPteOYjFXCSTEratQ5UaQhSCPVtEtO1iyCKiNpk9U9A9Wo6E60jsOzwPU24qxx/GFqO0zEKs1oXrSr9nS8rU59XvDFxEtO1gyCKiNplDf8IbDhQWICzAcVSg+tkxEcyaX4Ffn1wE2wLqYi4AwLJSAU3ooi5/vWm/EhH1OgxZRNQmFY4kABWY/NAEActSYclxJIpLbPxuTDGmzi3HwYfmobFRoqlR12ulPqevQDSHEomIeiOGLCJqB+FfXah7tSR0aAJsW8B1JRxHYqddcjBhShkuu6YUO+wURm2Ni2QSsCx4YStVHK9qtxi2iKh3YsgionYzh/yCVxFalvDDlpQShxyWj9nzK3D2BcWIFluoi0m4rppfSxXFCwiR6uHSvWRERL0FQxYRdVgwYMHrjdJhC1BDiOEw8KsTizBjXjmO+lUhpARiMdcroFe9WvpKRHO9RES9AUMWEW0W3asVfNbhy7bV5KSOI1GxvY0xl5TguuvLMPyQPMQbJJoaJSwbsKzUEKI5YzzDFhH1dAxZRLTFMg0jmmHLdQEnKbHH3rmYOK0UY6/sg/47hFBX6yCRgDe/VqZ6LQ4hElHPxZBFRJ3GHO5L/xmwQ6pXCwBGHlmA6fMqcOpZUe8WPRJSqnotHbDUcCKHEImo52LIIqJOJbw5scyaLfUsYHmTlDqORCQi8JvTopg2pxw/+UUBHAeor3NhWXoIEWn1WuAQIhH1MAxZRJQVwaAFSMDrmbIsQLoqbPX/QQgXjOuDSdPLMHS/XNTXSzQ3Sdi2mjYifQhRYdgiop6AIYuIskbXapnPOnhBCNg2/Hqtofvl4uqZZbjoshJs3y+E2o0OXG9G+dQQYnpwY9giou6MIYuItopgQNKzyFuWgBUCHEfNDn/kzwoxbW45Tjq9COFcgVitA2GpyUyld2uf4DqJiLojhiwi2mqCPVt+b5RUVyECQDIpUVxi4X/OLsa0OeUY/dMCNDdJxBtcNYRotbxFj14XEVF3wpBFRF0iPXClpm8IhfSUDy4G7hjCJRNKcdXUMgzeK4xYzEFzsxpCDE75wF4tIupuGLKIqMvooKV+Vj1UEoAlBGwvbLmuxH4H5mHKjRX4w9gSlFfYqK1x/Skf9LAje7WIqLthyCKiLqd6obzQ5d18WkpVryWEugoxFAJ+dkwE0+dV4PhTi2BZasoHIfTNp4URtlLhjYioqzBkEVG3kBo+hB+W9DCgClFAMumiT6mFM84rxrS55fjh4XloapRobFTza6WmfPB6xbweLfZsEVFXYMgiom5G9V7BuHpQeBOc+vVajsSOO+dg/DVlmDClFDvvmoO6mINkUtdrqV4t1mkRUVdiyCKibsms10r1SqngZFmqVst1JQ44OB8zbi7HuReXoKTUQqzWAaDDFtLCFnu2iGhrYsgiom4tNYyoe7VUQPLmM4XjTVh69LERzLy5AsecEPFv0SOETM2vFbjdDxi2iCjLGLKIqNszC+P1s35Ylqp1d5ISpWU2zrmgBNPnlWP4iDw0NKh6rdSUD+mzxQd7uIiIOhNDFhH1CKqoPb0Xyu+hsvSUDxKOI7HLbjm4amoZLrumFAN3DKG2xkUyCe8G1alhRx2uzJ+JiDoLQxYR9Rg6YJm/67AlpVS36LFU2HJdiREj8zF9XgXOGFOMSJFArFbNr5UpbDFoEVFnY8gioh5JBy7zWYckPZ2D40jk5wscf0oRZt5SgZ8eU4hkUtVrqeXShw05vRYRdSaGLCLq8dIDl56MVN0PUUo1v9Z229u44NI+uGZWGfbZLxcN9S4aG1O36EHaraeJiLYcQxYR9Rrpw36pXipzfq0hw3Jx3ewyXHJVH/T/gVev5ehb9KhwRkTUGRiyiKjXaG0IUUp49VoqaEkAo35UiGlzKnDK76LIz/fqtdLm1yIi2jIMWUTUK5kF7fDnxFJDiEKoKR+ixQKn/C6KGfPKceTP8+EkJerrXFiWKqInItoSDFlE1GvpgJX6OTVzvB2CP4TY/wdhXHx5Ka6cUoa99slFfZ1Ec7OrAlnaGomI2o8hi4h6vWCvlgpbaroHfYsex5HYd3gerru+DBdd3gfbbW8jVuuAkzoQ0eYS0WhUAkBNTU3wPSKiXic4J5aAgBQSkKpnSwhVv7Vxg4O//60O+x6Qh732yYXrqiHE9LBGRNQ6hiwi2ub4ASttIlJACFUk7zqAHVJBKpGQCIXS5+FiyCKi9uBwIRFtc0TgZtF6ygc9A7yq15JwHYlwWH2GPVhE1FEMWUS0zQoWxqvpHlL1WsISkDJ1M2oGLSLqCIYsItrmBcNW6irE1KSmwVouIqJNYcgiIvLosKV7roIPcxkiok1hyCIiIiLKAoYsIiIioixgyCIiIiLKAoYsIiIioixgyCIiIiLKAoYsIiIioixgyCIiIiLKAoYsIiIioixgyCIiIiLKAoYsIiIioixgyCIiIiLKAoYsIiIioixgyCKiXkdKCSll2s+tPYLLExF1FoYsIuoVzMAkhEj7ua1HcB3meoiItgRDFhH1eDpMBZ8BwHEcJJNJJBKJtEcymUQymYTruv56dPAyP09EtLlENBqVAFBTUxN8j6jbMhvT7oQN89YX/FsQQsB1Xbiui1AoFFy8VebfEoMWEXUGhizqscxGVUqZ1iOxNQkhYFkWG+UuZB77ZDLph6vq6mq88847eP/991FTU4OmpiZYloX8/Hzk5+ejX79+2G+//TBo0CAUFhbCslTnPkMWEXUGhizqkTL1XnSlTMNUlH3B3icdsL7//nvMmzcPjz32GFavXo1kMpn2OVOfPn0QiUTw6KOPYsSIEXAcJy1sERFtLoYs6pGCoaahoQEffvjhVm8UXdfFoEGD0K9fv24T+LYVrQWsjz76CCeccAI+//xz/33LslqcFxm4wnDp0qUYOXIkQxYRdRqGLOqRdLhyXReWZeHjjz/GoYceitraWoRCobQGOFssy0JzczNuvPFGXHbZZWnDVLR1BP8OKisrcfjhh+PTTz9FOBxGMpls829BB/XtttsOr776KnbddVe4ruuHK4YsItoSvLqQeqxg46nroswrx7L5SCQSGbeDtg6zN1PX482ZM8cPWIlEosW5sSwr7aFD8fbbb4+Kioq0ZYmIthRDFvVYrfUytPZ6ZxJesbv+mbqOlBKhUAjr1q3Do48+CnjF70G6x8t86KBcVlaG4uJiOI7DXiwi6jQMWdRr6F6LYO9FNpi1PFvj+6h1+vh//PHHWL16ddprJikl9t13X5x22mm4+OKLceaZZ+KXv/wldthhBwwZMsRfhuGKiDoLQxb1WGZDKoRAKBSCEAK2bW/ysSmWZbX4TKaHXpa6hhl2//Of/6QVrWv697Fjx+Ldd9/FX/7yF8yfPx/33XcfnnrqKaxcuRLTpk0DANi2zaBFRJ2GrQP1WLoeB97wUHV1NaSUcBxnk49NcV23xWeCDz3UFI/Hgx+nLvD9998DGYb5XNdFcXExLrjgAgBAc3Ozfw6T3sUKJSUlfrgy/66IiLYEry6kHskcqrMsC6tXr8YVV1wBx6ipycR1XeTl5eH555/H2rVrMzaoubm5OPLII1vU6AQJIRCPx3HOOefgV7/6FRyvFyXTOttDf66172vPOjf3u9tibldr69bb3Nr7HWF+T/CYZFq/4zgIhUL4/e9/j7vuugu2bftBWn9+2LBheP7551FeXu5fiagFv8v8ua197ojWzqnWke9oz7a19Z6prePaHpm2pb3fbdrU8SHqqRiyqEcy/2GXXtDqiF/+8pd45plnMjbIffv2xdtvv40BAwYEP9Yqs+HW26a11uBkWsZstEzm/gbfMwWXM9eb6f32aG3bgusI7mdw/cH3TZtaT3A/NOn1XIZCIZx77rm455570s6pZVlwXRcHH3wwXnjhBRQWFrbYbnNdwe/K9Jq5fFBb7wePn2Z+R/C9TMz1Br+vPZ9Hhn3Vgp9v7f3gNre2nF42KNNn9OtEvUnHWiaibkj/gx28AXCmhx7ay3T1mSalxMaNGyGlRHNzc4t1BB+6t0t6gU94V7Hp4SjHceC6rv++9KYcMN9DoOExn4MNWmtDma43v1NweRg3STbXrX8Orkc/zOVMwXXp5YQ31KaZxyDp3YjZPAb6oY+FPh6aXp+5fv2z3m7Xu0pQv9Ya/T2t7W/w2OnPmPujP9va/rS1H/rz5rr0c3vPrf4ec73mNun1mesOrifTvrb3nOn9C34+03paW4e5HgRClXl+iXoLhizqkYL/uAshEA6HN/nQ8yKZ/7gHCa94XnjF9MF1BB96WXgNWzKZ9AvnQ6EQQqGQv4z0et30e7Zt+70tuvHS26D3T683+Pngw/LmCdPLwwuTUkr/+0x6ncH16Ie5HngNp+u6/rqC26obUMcLaJmOgR5Odb1glGkZ/V36u81zZR4XvZ05OTkAgHA47C8XFAqFEIlE/HMa3Fd97Mz16+/V+5RpW/W5y/SeECIt1OiH+T2a/r2tc2suizbObaZjFFyXuQ16/1rbD02/blkWHC9EmuvRIc5c1jxO5jbp7XW8/0Ext5moN+FwIfVImRqqTRFCIJFIIBwO4+ijj8bixYthtzJc+NJLL2GPPfZICz6ZmNvgeMNWABCLxfD+++/jvffew6pVq7BhwwZUV1ejqakJZWVlKC0tRd++fTFs2DAceOCB/kSYyWQSthHIgt8jhMCXX36Jr7/+Gjk5Of5ryWQSffr0wZAhQ/wGz/Im3ASAN998E3/7299wyimnYNiwYXAcB7Zto7KyEsuXL0c4HPa/T0qJcDiMAw44IO346Ab3008/xeOPP46DDjoIP/vZz/zGWT/DCyaVlZX49NNP8eWXX6KyshJr1qzB999/j3g8jng8jpycHEQiEUQiEQwaNAgDBw7Ennvuif333x+2bfs9IHqd5jH4/vvv8fnnn/vb16dPH0yaNAlPPfVUxnM6ZMgQ3HrrrcjLy/Mbds1xHOy4447YYYcdWvxdmee0vr4eH374Id599118/fXX/jmNxWKIRqMoLS1FaWkpBg4ciP333x977703CgsLAeO8Bvcj+Lx69Wp89dVXaeHGdV1Eo1HsvffefsARXlgBgLfffhvPPPMMjjvuuBbn9rPPPksLaI7jYPDgwdh+++2RTCbT1gMA69atw/Lly/HZZ59h5cqVqKqqQmVlJQBgwIAB2G+//XDsscdiu+2287dDB299TBOJBFavXo2PPvoIX3zxBVavXo3q6mpUV1cjPz8fgwYNwogRI3DMMccgPz/f314Yod48P0Q9WjQaldFoVBL1Zq7rSimlbG5ullJKedRRR0kA0rZtCUACkEIICUD27dtXLl++XEoppeM4/mdN5muu68pEIiGllLK6ulrOnj1b7rPPPjI/P99fd2sPIYQcPHiwvPTSS+XXX38tpZQykUj463dd1/9Zf8fEiRMlAFlcXCwLCwtlNBqVlmXJESNGyFgs5i/vOI5cvHixPO6442RhYaEEIJ9++mkppZTxeFxKKeWjjz4qLcuSRUVFMhKJyEgkIvPy8uT222/vb4/25ptvyrPPPltut912EoC87rrrpPS2y3EcKaWUq1atknPnzpU//elP5W677Sbz8vJa7HNbj2g0KkePHi3vvfde/3uTyaS/T8lkUkop5X333ecvX1hYKIuKimQoFGqxPv2wLEsWFhbKSCQiCwsL/UdRUZEEIOfNm+fvi+u60nEc/3h/++23curUqXLfffeVkUikxbozPYqKiuR+++0nZ82aJdetWyel97enj5MMnFu9X9OnT5cI7FdOTo7cc8895ffff+9/3nVd+dxzz8kTTjjB36ZHHnlESillY2OjlFLKhQsXylAo5J9X73+o5UUXXeRvg5RSLl++XN53333yhBNOkIMHD5a5ubkt9sd8DB48WP7rX/+S0vsbk1LKpqYm+cYbb8hZs2bJUaNGyR/84ActPhd8jBw5Un755ZdSGvtv/t0T9QYMWbRN6MyQFQxAuoF4/vnn5eDBg9MaEtu2pW3b0rKstId+XX8nANm/f3/5xBNPSBkIFsGQdcUVV0h4wcH8roqKCj8YLVmyRB5zzDH+Mvp77r//fimNkLVw4cK09/XDsiy5bNkyKaWU77//vjzrrLP80KiXvfTSS6X0jqnetgcffDBtPTCOQabjYB6P4P4cf/zxcuPGjVIajbB+XrBggb+dwe/ryEPvyz333COlERj19zzwwANy4MCBaZ9pbV/M/TSX33nnnf0ApM9r8Nzq75s8ebJEhv0qKCiQX331lZRSyldffVUee+yx/jL6+2655RYpjXP7wAMPZNzXoUOHyo0bN8p//etf8tRTT5Xl5eVpy+l1BvfRtm0/yBYWFsoPPvhA1tXVyQULFsjRo0e3+J8KIcQm1zN8+HBZX1/vHwvz2BD1BqzJIuoAcwgP3vCLbdt45JFHcMwxx/hDWHqIxjGKjc2Hfl0PE4VCIXz77bc48cQT8fDDD/tDXsHvgzGUYg6pCCFQWVmJd999F1dccQWOPPJIPPPMM5BezY7enq+//jrjOsxnPQT0n//8B7fccgtGjhyJ++67D/F4HLZRr7V+/fq0zwDAnnvuiT59+gDGJKB6XzMdB/N4uF6dlv6ORYsW4eyzz4brDUOaxyK43ZtLf76srMx/TR+zGTNm4IwzzsDXX3/doXPqGFc22raNlStX4pRTTsH111/vn9fWBPdLPzuOg7feegsTJ07EqFGj8OSTT/rHRS+jz4cWPKfaypUrccQRR+AXv/gFHn74YVRVVflDy+b3BffR8YrZbdtGfX09TjvtNIwePRrnnXcelixZgng8nrYeadRpZVpPKBTC22+/jccee8z/Tr2tmf7uiXoihiyiDjAbK9d1EQqF8MEHH+Dss89GY2Oj34jqwACvsTU/J7z7HurXpFcsr8PL2WefjU8++QShUAjuJmrCNN0onXHGGbjxxhvhenUyuqHT73/zzTeBT6aTxtVpkyZNwtixY1FbW+tvm7lva9euRSKRSNuXnXfeGX379vXXpfdVByfdCJuPIN0wh0IhLFq0CHfffTeEV0Su6e8z17Op4xT8XvMzOmTp4/bnP/8ZV199tb/9wXPa2vpMOlDo16+88kosXLgQoVAobV9M+tgHn5ubm3HOOedg1qxZaX8rrle3BiNk6e8zg4p5Xuvr6/Huu++iubkZtldLpQNQe8KNDkMffPAB3n77bf8Ywdue9q5HH89HHnkE8M6puZ1EvUHLf+GIqFU6OOhnALjooosQj8dbbTx1o1NSUoK+fftCGtMJmMFAB4vGxkZMnjwZCDSO7VFTU+OHh0zbsnbt2navLxaLtbmuyspK1NbW+su4XoF2v379AO+KPr2vOjjpRth8oJUeKf3eAw88gMbGRj90wgsd8Iqs29uwB79XbxcAv/ctJycHK1aswOWXXw5426W/UwsGiuC+ZApb+rXLL78cq1at6lCAhvd3oM8HvL+VoNZmvM90XMz1mO+LwBWJwXVp+m/X8noYMx0jcz2Z6M+8+OKL+Oijj/z/KSDqTRiyiDaDbjiXLFmCV155BWhl7i3btjFu3Di89NJLWLJkCV566SUsW7YM8+fPR3l5ecagBQDPPvtsWm9WR7iBwKFDELyeLN0T0R6Z1qUb6BUrVqCurg7wGl19THbaaSfAC0ClpaU44IAD8OMf/xinn346JkyYgHnz5mHevHm48sorcdRRR6GoqKjFcYDRCL/55pv45JNP0t4bMGAA9t13Xxx22GEYMWIEDj/8cGy33XZpy5gikQgOOeQQHHroofjhD3/Y4lFaWuov++CDD6KysjLjsdehq6CgwL+68owzzsBPfvITHHjggcjPz88Ynlyv1/O7777Dww8/7L/W0VAR3B4z0K1YscIfstsUcz06WME7jzoQBwNYUDBcmX8bbobh00yEd8VvVVUVYIQ3ol6Dhe+0LeiswnddmKsLvS+66CIJoMWVbXpdd911l//ZoNdee82/us0sPNcFzXfccYeURsG7fp4wYUKLbc/00IXG+vdRo0bJxYsXS+ldDSallA899FDad7b20EXM+vd99tlH3nfffbKxsbHFBQCPPfaY/N3vficfeOAB+f777/tXu7Xm9ddflzvuuKP/PcF9ACAff/xxKY2r/1zvCkDHcfxzOmbMGInAcdGfHzFihF8Qnkwm/c/q86uvkovFYnLo0KEZt0X//pOf/ES++eab/v5qiURCLlu2TI4ePTrj5/W2HHjggTIWi0mZ4eKJ1grfgw8hRNoyhx12mHz22Wel67r+8QgWvgcfwb+P3Nxcuddee8mzzz5bTps2TU6ZMkUOGTLE/77g5/Uj+HdYWloqR4wYIS+++GI5e/ZsefHFF8vi4uIWnzPXu3DhQikzXGVI1NMxZNE2obNDlvQahFGjRkkEGkX98+jRo/3lEomE37gnEgk/eJx//vmtfv7000+XcjNDlhn6Ro4cKRctWpR2+b8+Du0JWeb3DBkyRC5YsEDW1dVJTR8PfWwyNZDJZNJ/JBIJ/6G3Q0/JEGzM9XZNnz7dX09rIeucc85psb368wcffLC/zcGQZV5NuHz5cllQUNDiGOj1mFfD6fWY65NSyrq6OrnXXnu12B/9c0VFhfz000/9dZjP7QlZ5v4deuih8vHHH08LJ/rvZFMhSz/69+8vL730Uvn666/7+6atWbPGn44heG7Mh23b8uc//7m844475H//+1//nGh/+ctfMq5D7+fs2bOlNP7GM/0NEfVEm+5XJiIALYuRq6ur8fnnn6e9Zho1ahRgDBXp4ZSQMZO2XibT57/66isgQ41NW/SyyWQSu+66Kx566CEsXboUxx13nP+6uVx7OI6DsrIyzJs3D2+++SbOPfdcFBYW+jOOZ+IEbimk993cf10ID+84lJSUtLq+TJMlC2MW9Y4wPxf8/AcffICGhoa05U3jxo1DQUEBmpqa/GFYczi2qakJhYWFGD9+PBA4znoorLKyEh999JH/envpdTmOg5122gkPPPAAli5dihNPPBGWZWUcrm7LsGHDcNttt+Gdd97B3Llzccghh6CgoMA/d83Nzejfvz/2339/oJW/mXA4jFNPPRVvvPEGFi9ejD/84Q/YZZdd/PpEXTs3YsQIVFRUtDocmOn8EvUGDFlEm6mxsdG/oitTOBg4cKD/sxnQzIZGL2N+Xv8ci8X8q/cyrT9IeAX5+fn5mDBhAv7973/j1FNPhfSuXhTeVBGZGrm2nHnmmXjnnXcwduxYFBQUIOndj06vS38vjIbYDFPBGiFzX/TykUgE/fv3T3vN1BmNcKb1anqb1qxZA7RSvF5QUIBdd90V8Ir6g+sTRm3TXnvt5ddnmfR6v/vuO6CVv5tM9DHOy8vDuHHj8M477+D000+H8Gb7h1f/F9ym1oTDYdx222248MIL0bdvXyS9+wzKwK19APiz1pv0fgwdOhR/+ctfMHz4cLjG/Tj1MiFvtvxQKIS8vLy0dZjau91EPQ1DFtFmam5uRlNTU/BlX25urv+zDlfmA14DFmzQtcbGRtTX17erAdKNcElJCZ577jnMnj0bJSUlSCQSgBEKOtKoA8DChQtx3333YdCgQf6VfGZwMvdFr19/VjfcOpS19cjJyUFRUVHad5s/6/3oLKKVHjAd5jJtQ9++fbH99tu3eF8z19m/f3//isVMy9bX1wdfapU+rgUFBVi0aBHmzJmDPn36+KFIh6uOnF+zqD/pTQmhA5HeXv3c1jrD4TDq6ur8YKXDWXCfzb8Tom1J5n/diWiTNtXw6xsWh8Nhf6hMP8z/w2/NpkJcJhUVFRg+fDjgDSuZN03uSCOnlz3ssMMAb1/D4XBaY24GKrOB141/yLtBsDk8GHyEvGHUwsLCFg1zV4jH48GXfHl5eS16Y4LbrH/Pz8/3b1ydyab+djLp06cPhg0bBhjByPKGKjsaYsxlgwGto+sRxg3V9WsdWQdRb8aQRbSZgg2spnsIpkyZgh/96EcYNWoURo8e3eJx5JFH4owzzmgxpKS1tv62JJNJv5ckGIA2Z32xWAzweij0OvSz+bNuWHW4siwL7777Lh555BHccMMNmDhxIsaOHdvicckll+DSSy/FJZdcgi+//BLIME1Bd+FmmHKhteOaadktlUwm/Xoxs/eztW3oqM1dR/Bzwd+JtmUMWURZ8sknn+DFF1/E0qVL8fLLL7d4vPTSS3jnnXeCH9siwph9G0avgg5CHRUcyjQb9GDA0r10//d//4eRI0fihz/8IU499VRMmDABs2bNwi233NLiMX/+fNx88824/fbb/ck0e5KtGSh0sDWZ5yD4Xkd1xjq0zloPUU/HkEWUJTrwtPVoqzHanFAUZDbMbX1Xe5jr0tsWfJ40aRKOP/54LFu2zL/NUHsewTBH7dNZ5xadtA4iSsd/2YiySPfytPaAEV70QweO7h489PY63k2y77//fsycORPCuMrOnPU7WOyuH+axICLqTbr3v+JEPVgwULX3oa/Uisfj3bY+SRjDhKFQCBs3bsRNN90EeOEweCsVc/ngIxv1S0RE3QFDFtFm2lQw6N+/P/baay/svvvu2GOPPdr92HPPPbHzzjtjt912S7s6sDuRXv2ODlOvvfYali9fnvZacPkdd9wRw4cPxyGHHJL2GDFiBA4++GBEIpHgx7qVTMNpm/obIKJtG0MWUQeYDW2mRhfGMN/UqVPx3nvvYenSpXj11Vfb/Vi2bBneeust/O1vf0NpaakfaLqzN954A26GGyPDOx4zZszAW2+9hVdffRVLly71Hy+//DJeeeUVPP/889h777395btKW9+dKVDpHrqgTMfBtKn3iah3aP1fFCJqwWxQ25oHCd60B+FwGGVlZSgtLe3Qo6ysDMXFxT2mMdYzpZvbqwPLqFGjMHHiRFRUVLSYM0v/ruuzupqeEDVTcKqpqUF1dXXaa8EArD9XVVWFuro6Y8l0wfm2iKh3Ysgi2kw5OTkZbzmirVq1CjDmTDKLvINF3+ZDF4nrBrs7By29bXr+pkzhZMiQIYA3AacIFPm3p2dwayopKQEC+6F//u6771BVVQUYc3npniz9rF//7rvv/ECWaV06zBFR78aQRbSZ8vPzUV5eDrQSEPRNgHVgCgYKs2F2Xde/Cs+c0kAv0921NcymrzTMdIzMYNlV+2mGvd133x2hUKjFtuj9W7x4MeCdU32fPr39+h6CAPD0008Dxr5rrusiPz8fgwcPBlo5JkTUe7T+LyMRpdENog4+ZWVl2GuvvYBAyNC9GU8//TReffVV5ObmtpgTSzfslnEzXn0Lmu+++w6VlZU9ImDp7SstLQUCoUH/rGdyN6dzMEOJEAJ9+vRp8xZD2aa3dY899sjYy6T387bbbsPixYuRk5PjD3XqcxgOhxEOh7Fo0SLcfvvtgLfPmv6O8vJyhiyibQRDFtFm0AFh3333Db4FeKGrqakJZ511Fh599FGsWbMGNTU1aGpqQlNTEzZu3Ii1a9fim2++wfLly/HPf/4TN9xwA8aMGYODDjoIN998M+B9T09oiPv16wcEhsZ02FyyZAneffdd5Obmpt3PMBwOI5lMYtWqVZg7dy4+//zztM9tTUIIuK6LAQMG+PdrNHuhdE9kXV0djj32WIwZMwaPPfYYXn/9daxYsQKvvvoqHnnkEZx11lk46aSTMt6bUAfxgw46CP369YPjOD3i3BLR5mPIIuog3QMFACeffDJCoVCLaQtc70q7L774AqeccgoOPPBAjB49GkcffTSOOuooHH744TjkkENwwAEHYMSIETjmmGMwYcIELFiwAN988w0++eQT/7u6e28WAOy8885AhvojIQRqampw3HHH4YYbbsDChQvx0EMP4U9/+hOuueYaHHPMMRg+fDjGjx/foqh8a9HbqcPdqaeeGlwEMJZLJBJYsGABTj75ZPzoRz/CgQceiJ/85Cc49dRTcf/99/vnPkgfm9/+9rf+ec20HBH1HgxZRB0kvfv0OY6DYcOG4cQTTwSAFnNa6UZUCIHvvvsO7733Hl566SUsWbIEH374IVatWoV169ahpqYGyWQSlmX56/jqq6+wcePGjPVB3YU+DgAwfPhwVFRUtAgO+vdVq1ZhwoQJOO200/A///M/OP/88zF9+nT861//QlVVFSzvNkNbm7mtlmVBSonf/OY3+OlPfwrHcVoMYepzoYd/4/E4NmzYgHg8nha+g+csHA7DdV388pe/xK9//Wu4rtuiXouIep+t/68aUQ+mG2UdngBg/vz52HXXXZFIJDIGLR00dJDQj2Avhi6mBoCVK1f60yIEG+zuRAiBZDKJXXfdFb/5zW8AIGMwEd6tdvQ+6zom/SyNK/O6ivB6s2zbxp/+9CfsuOOOSCaTCIVCGc9V8Lxk2gchBMLhMBKJBHbaaSfccsstfpjTnyGi3oshi7ZJuschOG8TvFqcYKOqmY2jZVlIJpOoqKjAM888g7333tuvxdHrM3s23Az37NPhSy+vf6+trcWnn36a9p2aXqe53TrYtLXtmehlzXWZ62trXWZgAoCrrroKO++8sx829evw9kEPqZoBU78upcSQIUMQiUQghEg7L+Z3tGVT51Rra5/0Od1pp53wj3/8A/vvvz+SySSklP76MgVkLXg+pZRIJBIYPnw4nnvuOey0005+r2WmdWTah809t62ty7KsjMGxNZnWk+m4tkUY97MMbg/aeX6JeiL+ZdM2qba2FgDQ1NTU4mq39evXt6ix0nTDJLyaGtu2kUwmsfvuu2PZsmW46KKLEI1G/XXqng3dyOiHblR0+DKXd10XQ4YMQXFxcdp3avX19QCA5uZm/3M63G3YsCGtNyUY0DT9elNTE+DNYaXXZR4LfRyk1yOn6f0XXo9eMpnEgAED8OSTT2KXXXZBIpHwt8Pc5+D+SikxdOhQ/OlPf8Irr7yCAQMGQEqJpDc9QnNzMwC0ObGnppcxz6k+LjU1Nf72B4+JuS/wtlef0xdeeAETJkxAaWlp2jnS69BBQQeI4P6VlZVh0qRJeOGFF7DrrrsimUzC9sKSuR3653g8DrTz3G6KPrf6WOrz6rou6urqMhbnZ6KPa6ZtMo9rW1zXxYYNG4DA35o+v/pvmqi3EdFoVML7j4Wot9KNqB7+mTRpEl5++WU/EMEY+iovL8eNN96IHXbYAa5XxBwMOnp9uoFxjRqbL7/8EgsXLsSSJUuwYsUKrFmzptUGrbi4GKWlpaioqMDgwYOx//7749BDD8U+++yDvLw8uK7rBzLHm0PrnnvuwQMPPICCggK/0bUsC42NjRg0aBBuu+02RCKRtOCg6df0ul566SXMmDEDoUDtlz4W9957LwYOHJi2HeZ69M/wti8UCmH9+vWYOXMmnnzySaxYsaJFI9y3b1/suOOOOOCAA3DSSSfh4IMP9mdAnzt3Lp566ink5+f739nQ0IBjjz0W48aN88+HSR/7efPm4YknnkBxcbF/Ti3vKs+hQ4fi+uuvR15eXovjYp5L85zq/YF3Tp944gksWbIEH3/8MdauXeuHGFNubi769euHvffeG0cccQROOukkDBw4EPDWp3uwgsdan48HH3wQd911FwoLC/1zK7xi+4qKCsybNw/9+vVr8+9SH48XXngBM2bMQE5Ojv99whsSzc3NxcyZMzF06NCM51Y/W5aFmTNn4h//+EfaNum/t6FDh2L27NkoKChI+w5zPUIIfP/99xg3bhzWrl2LcDjsv6fP75lnnomzzjrLPw7Bc0TUUzFk0TbB/Ec72Ki0Jtj4bup11+vh0GELANatW4dvvvkGDQ0NiMfjaGhoQE5ODvLy8pCfn4/S0lL06dMHFRUV/mc0vZ1mYxX8zta0to2dfRw0/bpuJAEgFoth+fLlqKmpQWNjIwoLC1FYWIi+ffti0KBB/mfh9bZYmyh+N4OFeUz0e219VmtrX8zX9bPr9SzqsAXvnH777beIx+Ooq6tDPB5HQUEBCgsLUVBQgP79+6edz+C+Bc+n/rmj+5CJud0dWZe5ztZ+bkum5TKtuy3m33t7lifqCRiyaJthNmiON+zT2j/mwSGd4HJmA6Lp36XXmyCMOpRNkV5tkv4eYdx2JthYOZuYHb09265f1yGiNW2tq7VjkCmYBOllzP1sbd+k16OiezhgbIf5e1vnVHi1Uq3tC9rYH7kZ51QPt+rvbG29we1xvaHG4LZpbZ0PdPK51a+1dVzRjvXo93TvYibCO66Z1kHUkzFk0TbB/MfebBDaq61/9DOtWz+bj0yEETDM1xBo6PTv7dn24PKm9q7DZO5Ta4L7DqNnz/wuc3/N5duzPZmWz/Rae7S1L2jlOOnfzUdQcP8QOI/m8dHvBb+nPTKtC8Z3dVRr29SRbQtuU0c/rwXXQ9STMWTRNsVs8DIJNgytLRfU1ufaajDaapQyrSPTe20t09Z3t2Vz17Wp5c31dnT9m9r3tt4LfldHZNrG9mxre7+zo8tiE8uglW0239vU97VnGS24/qC2tqUjyxD1RAxZRFkUbKyCemuj0tp+94b9bW3f0Ev2j4g6z6YrI4los+nGVgSGkfTDXKY3aW2/zfd6qtb2rbfsHxF1HoYsIiIioixgyCIiIiLKAoYsIiIioixgyCIiIiLKAoYsIiIioixgyCIiIiLKAoYsIiIioixgyCIiIiLKAoYsIiIioixgyCIiIiLKAoYsIiIioixgyCIiIiLKAoYsIiIioixgyCIiIiLKAoYsIiIioixgyCIiIiLKAoYsIiIioixgyCIiIiLKAoYsIiIioixgyCIiIiLKAoYsIiIioixgyCIiIiLKAoYsIiIioixgyCIiIiLKAoYsIiIioixgyCIiIiLKAoYsIiIioixgyCIiIiLKAoYsIiIioixgyCIiIiLKAoYsIiIioixgyCIiIiLKAoYsIiIioixgyCIiIiLKAoYsIiIioixgyCIiIiLKAoYsIiIioixgyCIiIiLKAoYsIiIioixgyCIiIiLKAoYsIiIioixgyCIiIiLKAoYsIiIioixgyCIiIiLKAoYsIiIioixgyCIiIiLKAoYsIiIioixgyCIiIiLKAoYsIiIioixgyCIiIiLKAoYsIiIioixgyCIiIiLKAoYsIiIioixgyCIiIiLKAoYsIiIioixgyCIiIiLKAoYsIiIioixgyCIiIiLKAoYsIiIioixgyCIiIiLKAoYsIiIioixgyCIiIiLKAoYsIiIioixgyCIiIiLKAoYsIiIioixgyCIiIiLKAoYsIiIioixgyCIiIiLKAoYsIiIioixgyCIiIiLKAoYsIiIioixgyCIiIiLKAoYsIiIioixgyCIiIiLKAoYsIiIioixgyCIiIiLKAoYsIiIioiz4f2SUXGxRqL+pAAAAAElFTkSuQmCC;clipPath=inset(5.24% 27.33% 15.24% 27%);" vertex="1" parent="1">
          <mxGeometry x="35.63" y="372" width="79.57" height="97" as="geometry" />
        </mxCell>
        <mxCell id="_OdZvJV1ger64qLsPYaK-24" value="&lt;span style=&quot;background-color: rgb(255, 255, 255);&quot;&gt;AWS Cloud&lt;/span&gt;" style="points=[[0,0],[0.25,0],[0.5,0],[0.75,0],[1,0],[1,0.25],[1,0.5],[1,0.75],[1,1],[0.75,1],[0.5,1],[0.25,1],[0,1],[0,0.75],[0,0.5],[0,0.25]];outlineConnect=0;gradientColor=none;html=1;whiteSpace=wrap;fontSize=12;fontStyle=0;container=1;pointerEvents=0;collapsible=0;recursiveResize=0;shape=mxgraph.aws4.group;grIcon=mxgraph.aws4.group_aws_cloud_alt;strokeColor=#000000;fillColor=none;verticalAlign=top;align=left;spacingLeft=30;fontColor=#232F3E;dashed=1;strokeWidth=3;" vertex="1" parent="1">
          <mxGeometry x="176" y="233" width="529.11" height="376" as="geometry" />
        </mxCell>
        <mxCell id="_OdZvJV1ger64qLsPYaK-15" value="Terraform Backend" style="points=[[0,0],[0.25,0],[0.5,0],[0.75,0],[1,0],[1,0.25],[1,0.5],[1,0.75],[1,1],[0.75,1],[0.5,1],[0.25,1],[0,1],[0,0.75],[0,0.5],[0,0.25]];outlineConnect=0;gradientColor=none;html=1;whiteSpace=wrap;fontSize=12;fontStyle=0;container=1;pointerEvents=0;collapsible=0;recursiveResize=0;shape=mxgraph.aws4.group;grIcon=mxgraph.aws4.group_security_group;grStroke=0;strokeColor=#8C4FFF;fillColor=#E6F6F7;verticalAlign=top;align=left;spacingLeft=30;fontColor=#147EBA;dashed=0;" vertex="1" parent="_OdZvJV1ger64qLsPYaK-24">
          <mxGeometry x="22" y="80" width="164" height="119" as="geometry" />
        </mxCell>
        <mxCell id="_OdZvJV1ger64qLsPYaK-16" value="S3" style="sketch=0;outlineConnect=0;fontColor=#232F3E;gradientColor=none;fillColor=#7AA116;strokeColor=none;dashed=0;verticalLabelPosition=bottom;verticalAlign=top;align=center;html=1;fontSize=12;fontStyle=0;aspect=fixed;pointerEvents=1;shape=mxgraph.aws4.bucket_with_objects;" vertex="1" parent="_OdZvJV1ger64qLsPYaK-15">
          <mxGeometry x="19" y="46" width="46.15" height="48" as="geometry" />
        </mxCell>
        <mxCell id="_OdZvJV1ger64qLsPYaK-17" value="DynamoDB" style="sketch=0;points=[[0,0,0],[0.25,0,0],[0.5,0,0],[0.75,0,0],[1,0,0],[0,1,0],[0.25,1,0],[0.5,1,0],[0.75,1,0],[1,1,0],[0,0.25,0],[0,0.5,0],[0,0.75,0],[1,0.25,0],[1,0.5,0],[1,0.75,0]];outlineConnect=0;fontColor=#232F3E;fillColor=#C925D1;strokeColor=#ffffff;dashed=0;verticalLabelPosition=bottom;verticalAlign=top;align=center;html=1;fontSize=12;fontStyle=0;aspect=fixed;shape=mxgraph.aws4.resourceIcon;resIcon=mxgraph.aws4.dynamodb;" vertex="1" parent="_OdZvJV1ger64qLsPYaK-15">
          <mxGeometry x="90" y="46" width="48" height="48" as="geometry" />
        </mxCell>
        <mxCell id="_OdZvJV1ger64qLsPYaK-25" value="IAM" style="outlineConnect=0;dashed=0;verticalLabelPosition=middle;verticalAlign=middle;align=right;html=1;shape=mxgraph.aws3.iam;fillColor=#759C3E;gradientColor=none;labelPosition=left;" vertex="1" parent="_OdZvJV1ger64qLsPYaK-24">
          <mxGeometry x="456.25" y="60" width="39.5" height="63" as="geometry" />
        </mxCell>
        <mxCell id="_OdZvJV1ger64qLsPYaK-31" style="edgeStyle=orthogonalEdgeStyle;rounded=0;orthogonalLoop=1;jettySize=auto;html=1;entryX=1;entryY=0.5;entryDx=0;entryDy=0;entryPerimeter=0;dashed=1;dashPattern=1 1;" edge="1" parent="1" source="_OdZvJV1ger64qLsPYaK-2" target="_OdZvJV1ger64qLsPYaK-3">
          <mxGeometry relative="1" as="geometry" />
        </mxCell>
        <mxCell id="_OdZvJV1ger64qLsPYaK-32" style="edgeStyle=orthogonalEdgeStyle;rounded=0;orthogonalLoop=1;jettySize=auto;html=1;entryX=0.5;entryY=1;entryDx=0;entryDy=0;entryPerimeter=0;dashed=1;strokeWidth=2;" edge="1" parent="1" source="_OdZvJV1ger64qLsPYaK-3" target="_OdZvJV1ger64qLsPYaK-12">
          <mxGeometry relative="1" as="geometry" />
        </mxCell>
        <mxCell id="_OdZvJV1ger64qLsPYaK-34" style="edgeStyle=orthogonalEdgeStyle;rounded=0;orthogonalLoop=1;jettySize=auto;html=1;dashed=1;strokeWidth=2;" edge="1" parent="1" source="_OdZvJV1ger64qLsPYaK-25" target="_OdZvJV1ger64qLsPYaK-2">
          <mxGeometry relative="1" as="geometry" />
        </mxCell>
      </root>
    </mxGraphModel>
  </diagram>
</mxfile>
